<?xml version="1.0" encoding="UTF-8"?>
<svg version="1.1" xmlns="http://www.w3.org/2000/svg" width="330" height="330">
<path d="M0 0 C1.01369107 -0.00322445 2.02738213 -0.00644889 3.07179111 -0.00977105 C4.18869911 -0.00822245 5.30560712 -0.00667385 6.45636082 -0.00507832 C8.23231761 -0.00847665 8.23231761 -0.00847665 10.04415232 -0.01194364 C13.33612626 -0.0171905 16.62804571 -0.01792654 19.92001998 -0.01674926 C23.46813817 -0.01654558 27.01624814 -0.02206086 30.56436253 -0.02680683 C37.51763186 -0.0351208 44.47089272 -0.037862 51.42416661 -0.03841921 C57.07432961 -0.03889398 62.7244898 -0.04094678 68.37465191 -0.04411983 C84.38454947 -0.05292816 100.39444032 -0.05753889 116.40434032 -0.05678936 C117.69956274 -0.05672943 117.69956274 -0.05672943 119.02095127 -0.05666828 C119.88548381 -0.0566274 120.75001635 -0.05658652 121.64074684 -0.0565444 C135.65729475 -0.0561378 149.67381581 -0.06571048 163.69035595 -0.07980665 C178.07326999 -0.09415747 192.45617093 -0.10107756 206.83909231 -0.10021287 C214.91772314 -0.09988047 222.99632582 -0.1026464 231.07495022 -0.11339092 C237.95223459 -0.12247888 244.82947806 -0.12468523 251.70676582 -0.1178815 C255.21709776 -0.11460774 258.72735112 -0.1145903 262.23767567 -0.12323475 C266.03936725 -0.13250064 269.84094301 -0.12634612 273.64264011 -0.11860371 C274.75731739 -0.12374727 275.87199468 -0.12889083 277.02045006 -0.13419026 C278.03674887 -0.12959147 279.05304768 -0.12499267 280.10014343 -0.12025452 C280.9779495 -0.12047188 281.85575557 -0.12068925 282.76016182 -0.12091321 C285.29165335 0.14758374 286.9285519 0.85368094 289.11299229 2.12863445 C289.11299229 2.78863445 289.11299229 3.44863445 289.11299229 4.12863445 C287.85517979 5.3278532 287.85517979 5.3278532 285.98799229 6.81613445 C282.20897725 10.02371087 278.85922809 13.5084215 275.52998447 17.16818523 C264.54846008 29.06681915 252.98069032 40.40687556 241.5278492 51.84810305 C238.20679757 55.16659328 234.88821977 58.48755609 231.56923008 61.80810833 C226.01366993 67.36547597 220.4560304 72.92075752 214.89717197 78.47482586 C208.46937403 84.89714895 202.04523328 91.32311346 195.62291169 97.75091255 C190.0890251 103.28932944 184.55320216 108.82580522 179.0157392 114.36064637 C175.71613918 117.65868763 172.41721825 120.95740054 169.12004948 124.25787258 C166.03270873 127.34809199 162.94295121 130.43587402 159.85127354 133.52175426 C158.71598807 134.6557136 157.58155989 135.79053194 156.44803715 136.92625332 C154.90597031 138.4710365 153.36088291 140.01273233 151.81495762 141.55365276 C150.9500634 142.41816996 150.08516918 143.28268715 149.19406605 144.17340183 C146.28378136 146.90770355 144.40491539 147.38610051 140.48799229 147.62863445 C139.67072666 147.70082195 138.85346104 147.77300945 138.01142979 147.84738445 C129.12383248 145.64345197 121.33122124 134.48837701 114.93306065 128.07809734 C113.72178514 126.86817914 112.5102975 125.65847328 111.29861546 124.44896221 C108.02779503 121.18267695 104.76011724 117.91326495 101.49315429 114.64312196 C98.06264363 111.21006739 94.62967992 107.77946717 91.19711399 104.34846783 C85.43477095 98.58794056 79.67453144 92.82531619 73.91548252 87.06149578 C67.27130571 80.41187749 60.62353429 73.76586915 53.97388452 67.12172419 C48.24952042 61.40190807 42.52711988 55.68013298 36.80633551 49.95673651 C33.39621357 46.54506106 29.98543274 43.1340517 26.57287502 39.72481251 C23.36370506 36.51854579 20.15701907 33.30981474 16.952178 30.09922123 C15.78042508 28.92615382 14.60783481 27.75392209 13.43431568 26.58262157 C7.94613208 21.10385253 2.49934372 15.63900981 -2.49254417 9.69457436 C-4.40632772 7.54545397 -6.56499427 5.8173715 -8.88700771 4.12863445 C-8.55700771 3.13863445 -8.22700771 2.14863445 -7.88700771 1.12863445 C-4.94729041 0.14872868 -3.06222566 0.00245784 0 0 Z " fill="#D40442" transform="translate(24.88700771331787,48.871365547180176)"/>
<path d="M0 0 C4.04298695 1.85994733 6.76676411 4.5450678 9.83203125 7.70703125 C10.66428474 8.55064461 10.66428474 8.55064461 11.51335144 9.41130066 C13.87765412 11.80813971 16.23003898 14.21654754 18.58325195 16.62426758 C20.3077647 18.38525256 22.03848163 20.13997523 23.76953125 21.89453125 C24.54959282 22.69948784 24.54959282 22.69948784 25.34541321 23.52070618 C32.50675853 30.77534874 39.31876842 35.25722523 49.8125 35.375 C62.66310476 35.09242126 69.23659164 28.68560745 78 20 C78.82226074 19.18611816 79.64452148 18.37223633 80.49169922 17.53369141 C86.35530067 11.71635111 92.18759145 5.86846293 98 0 C101.12585994 1.38830201 103.24892023 2.99954225 105.6608429 5.41360474 C106.37142853 6.11999588 107.08201416 6.82638702 107.81413269 7.55418396 C108.96828423 8.71676476 108.96828423 8.71676476 110.14575195 9.90283203 C110.96414551 10.71932724 111.78253906 11.53582245 112.62573242 12.37705994 C115.33482842 15.08244626 118.03664601 17.79497728 120.73828125 20.5078125 C122.62115217 22.39187577 124.50436482 24.27559168 126.38798523 26.15890503 C130.3397934 30.11164967 134.28771227 34.06824523 138.2331543 38.02734375 C142.77862087 42.58848669 147.32924286 47.14443204 151.88292152 51.69737542 C156.27643688 56.0902774 160.6670704 60.48604766 165.05614281 64.88338852 C166.91698998 66.74740802 168.77843474 68.61083115 170.64049721 70.47363663 C173.25153867 73.0868599 175.8592526 75.7033591 178.46606445 78.32080078 C179.22942612 79.08370926 179.99278778 79.84661774 180.77928162 80.63264465 C184.85007583 84.7275846 188.74699787 88.9063689 192.48190594 93.31098747 C194.44648367 95.49675216 196.62716365 97.27430084 199 99 C198.67 99.99 198.34 100.98 198 102 C195.06028269 102.97990577 193.17521795 103.12617661 190.11299229 103.12863445 C189.09930122 103.1318589 188.08561015 103.13508335 187.04120117 103.1384055 C185.92429317 103.1368569 184.80738517 103.1353083 183.65663147 103.13371277 C182.47266027 103.13597833 181.28868908 103.13824388 180.06883997 103.14057809 C176.77686603 103.14582495 173.48494658 103.14656099 170.1929723 103.14538372 C166.64485412 103.14518004 163.09674414 103.15069531 159.54862976 103.15544128 C152.59536042 103.16375526 145.64209956 103.16649645 138.68882567 103.16705366 C133.03866268 103.16752843 127.38850249 103.16958124 121.73834038 103.17275429 C105.72844282 103.18156261 89.71855197 103.18617334 73.70865197 103.18542381 C72.84517035 103.18538386 71.98168874 103.1853439 71.09204102 103.18530273 C70.22750848 103.18526185 69.36297594 103.18522097 68.47224545 103.18517885 C54.45569754 103.18477225 40.43917648 103.19434493 26.42263634 103.2084411 C12.0397223 103.22279192 -2.34317864 103.22971201 -16.72610003 103.22884732 C-24.80473086 103.22851492 -32.88333354 103.23128085 -40.96195793 103.24202538 C-47.83924231 103.25111334 -54.71648577 103.25331968 -61.59377354 103.24651595 C-65.10410547 103.24324219 -68.61435883 103.24322475 -72.12468338 103.2518692 C-75.92637496 103.26113509 -79.72795072 103.25498058 -83.52964783 103.24723816 C-85.20166375 103.2549535 -85.20166375 103.2549535 -86.90745777 103.26282471 C-87.92375658 103.25822592 -88.9400554 103.25362712 -89.98715115 103.24888897 C-90.86495721 103.24910634 -91.74276328 103.24932371 -92.64716953 103.24954766 C-95.17866106 102.98105072 -96.81555961 102.27495351 -99 101 C-99 100.34 -99 99.68 -99 99 C-97.63671875 97.6953125 -97.63671875 97.6953125 -95.6875 96.125 C-92.29834747 93.25542199 -89.31956562 90.22456534 -86.36791992 86.90917969 C-78.37672031 78.06950595 -69.86251702 69.73861681 -61.42578125 61.328125 C-59.64766336 59.55187603 -57.86976897 57.7754033 -56.09208679 55.99871826 C-51.45018719 51.36060655 -46.80529069 46.7255078 -42.159729 42.09106445 C-37.40449946 37.34668373 -32.65271079 32.59885708 -27.90039062 27.8515625 C-18.60305932 18.56490264 -9.30265228 9.28132956 0 0 Z " fill="#D40442" transform="translate(115,178)"/>
<path d="M0 0 C0.99 0 1.98 0 3 0 C3 0.66 3 1.32 3 2 C3.66 2 4.32 2 5 2 C5 2.66 5 3.32 5 4 C5.66 4 6.32 4 7 4 C7 4.66 7 5.32 7 6 C7.598125 6.268125 8.19625 6.53625 8.8125 6.8125 C10.99847854 7.99917406 12.41332594 9.09599113 14 11 C14 11.66 14 12.32 14 13 C14.66 13 15.32 13 16 13 C16 13.66 16 14.32 16 15 C16.66 15 17.32 15 18 15 C18 15.66 18 16.32 18 17 C18.639375 17.268125 19.27875 17.53625 19.9375 17.8125 C22 19 22 19 23 22 C23.66 22 24.32 22 25 22 C25 22.66 25 23.32 25 24 C25.66 24 26.32 24 27 24 C27 24.66 27 25.32 27 26 C27.598125 26.268125 28.19625 26.53625 28.8125 26.8125 C30.99847854 27.99917406 32.41332594 29.09599113 34 31 C34 31.66 34 32.32 34 33 C34.66 33 35.32 33 36 33 C36 33.66 36 34.32 36 35 C36.598125 35.268125 37.19625 35.53625 37.8125 35.8125 C39.99847854 36.99917406 41.41332594 38.09599113 43 40 C43 40.66 43 41.32 43 42 C43.66 42 44.32 42 45 42 C45 42.66 45 43.32 45 44 C45.66 44 46.32 44 47 44 C47 44.66 47 45.32 47 46 C47.639375 46.268125 48.27875 46.53625 48.9375 46.8125 C51 48 51 48 52 51 C52.66 51 53.32 51 54 51 C54 51.66 54 52.32 54 53 C54.66 53 55.32 53 56 53 C56 53.66 56 54.32 56 55 C56.598125 55.268125 57.19625 55.53625 57.8125 55.8125 C59.99847854 56.99917406 61.41332594 58.09599113 63 60 C63 60.66 63 61.32 63 62 C63.66 62 64.32 62 65 62 C65 62.66 65 63.32 65 64 C65.8971875 64.4021875 65.8971875 64.4021875 66.8125 64.8125 C68.99847854 65.99917406 70.41332594 67.09599113 72 69 C72 69.66 72 70.32 72 71 C72.66 71 73.32 71 74 71 C74 71.66 74 72.32 74 73 C74.66 73 75.32 73 76 73 C76 73.66 76 74.32 76 75 C76.639375 75.268125 77.27875 75.53625 77.9375 75.8125 C80 77 80 77 81 80 C81.66 80 82.32 80 83 80 C83 80.66 83 81.32 83 82 C83.66 82 84.32 82 85 82 C85 82.66 85 83.32 85 84 C85.8971875 84.4021875 85.8971875 84.4021875 86.8125 84.8125 C88.99847854 85.99917406 90.41332594 87.09599113 92 89 C92 89.66 92 90.32 92 91 C92.66 91 93.32 91 94 91 C94 91.66 94 92.32 94 93 C94.66 93 95.32 93 96 93 C96 93.66 96 94.32 96 95 C96.61875 95.2475 97.2375 95.495 97.875 95.75 C100.35068687 97.20628639 100.95125002 98.37812506 102 101 C100.71034824 102.37562854 99.37310707 103.70766393 98 105 C97.34 105 96.68 105 96 105 C96 105.66 96 106.32 96 107 C95.34 107 94.68 107 94 107 C94 107.66 94 108.32 94 109 C93.34 109 92.68 109 92 109 C91.5978125 109.8971875 91.5978125 109.8971875 91.1875 110.8125 C90.00082594 112.99847854 88.90400887 114.41332594 87 116 C86.34 116 85.68 116 85 116 C85 116.66 85 117.32 85 118 C84.34 118 83.68 118 83 118 C83 118.66 83 119.32 83 120 C82.34 120 81.68 120 81 120 C80.731875 120.639375 80.46375 121.27875 80.1875 121.9375 C79 124 79 124 76 125 C76 125.66 76 126.32 76 127 C75.34 127 74.68 127 74 127 C74 127.66 74 128.32 74 129 C73.34 129 72.68 129 72 129 C71.731875 129.598125 71.46375 130.19625 71.1875 130.8125 C70.00082594 132.99847854 68.90400887 134.41332594 67 136 C66.34 136 65.68 136 65 136 C65 136.66 65 137.32 65 138 C64.34 138 63.68 138 63 138 C62.731875 138.598125 62.46375 139.19625 62.1875 139.8125 C61.00082594 141.99847854 59.90400887 143.41332594 58 145 C57.34 145 56.68 145 56 145 C56 145.66 56 146.32 56 147 C55.34 147 54.68 147 54 147 C54 147.66 54 148.32 54 149 C53.34 149 52.68 149 52 149 C51.731875 149.639375 51.46375 150.27875 51.1875 150.9375 C50 153 50 153 47 154 C47 154.66 47 155.32 47 156 C46.34 156 45.68 156 45 156 C45 156.66 45 157.32 45 158 C44.34 158 43.68 158 43 158 C42.731875 158.598125 42.46375 159.19625 42.1875 159.8125 C41.00082594 161.99847854 39.90400887 163.41332594 38 165 C37.34 165 36.68 165 36 165 C36 165.66 36 166.32 36 167 C35.34 167 34.68 167 34 167 C33.731875 167.598125 33.46375 168.19625 33.1875 168.8125 C32.00082594 170.99847854 30.90400887 172.41332594 29 174 C28.34 174 27.68 174 27 174 C27 174.66 27 175.32 27 176 C26.34 176 25.68 176 25 176 C25 176.66 25 177.32 25 178 C24.34 178 23.68 178 23 178 C22.731875 178.639375 22.46375 179.27875 22.1875 179.9375 C21 182 21 182 18 183 C18 183.66 18 184.32 18 185 C17.34 185 16.68 185 16 185 C16 185.66 16 186.32 16 187 C15.34 187 14.68 187 14 187 C13.731875 187.598125 13.46375 188.19625 13.1875 188.8125 C12.00082594 190.99847854 10.90400887 192.41332594 9 194 C8.34 194 7.68 194 7 194 C7 194.66 7 195.32 7 196 C6.34 196 5.68 196 5 196 C5 196.66 5 197.32 5 198 C4.34 198 3.68 198 3 198 C3 198.66 3 199.32 3 200 C2.01 200 1.02 200 0 200 C-2.42782133 196.25993005 -2.28017727 192.56118006 -2.25396729 188.25683594 C-2.25708727 187.47219845 -2.26020725 186.68756096 -2.26342177 185.87914658 C-2.27140509 183.24747985 -2.26507685 180.61604349 -2.25878906 177.984375 C-2.26149878 176.09867213 -2.2650596 174.21297031 -2.26940918 172.32727051 C-2.27853777 167.20340893 -2.27498697 162.07962778 -2.26865101 156.95576477 C-2.26359347 151.59778626 -2.26828178 146.23981471 -2.27142334 140.88183594 C-2.2750637 131.88345094 -2.27026205 122.88509876 -2.26074219 113.88671875 C-2.24985751 103.47797389 -2.25338304 93.06930738 -2.264395 82.66056442 C-2.27346588 73.72970279 -2.27475412 64.79886478 -2.26951766 55.86800003 C-2.26639687 50.53141241 -2.26599163 45.19486163 -2.27259064 39.85827637 C-2.27836056 34.84159165 -2.27437366 29.82500812 -2.26280212 24.80833435 C-2.26015365 22.96524728 -2.26092382 21.12215171 -2.26532745 19.27906799 C-2.27077693 16.76698437 -2.26395609 14.25522681 -2.25396729 11.74316406 C-2.25842873 11.01048183 -2.26289017 10.27779961 -2.26748681 9.52291489 C-2.2390969 5.85239451 -2.02535198 3.12006406 0 0 Z " fill="#D40442" transform="translate(2,65)"/>
<path d="M0 0 C0.99 0 1.98 0 3 0 C5.42782133 3.74006995 5.28017727 7.43881994 5.25396729 11.74316406 C5.25708727 12.52780155 5.26020725 13.31243904 5.26342177 14.12085342 C5.27140509 16.75252015 5.26507685 19.38395651 5.25878906 22.015625 C5.26149878 23.90132787 5.2650596 25.78702969 5.26940918 27.67272949 C5.27853777 32.79659107 5.27498697 37.92037222 5.26865101 43.04423523 C5.26359347 48.40221374 5.26828178 53.76018529 5.27142334 59.11816406 C5.2750637 68.11654906 5.27026205 77.11490124 5.26074219 86.11328125 C5.24985751 96.52202611 5.25338304 106.93069262 5.264395 117.33943558 C5.27346588 126.27029721 5.27475412 135.20113522 5.26951766 144.13199997 C5.26639687 149.46858759 5.26599163 154.80513837 5.27259064 160.14172363 C5.27836056 165.15840835 5.27437366 170.17499188 5.26280212 175.19166565 C5.26015365 177.03475272 5.26092382 178.87784829 5.26532745 180.72093201 C5.27077693 183.23301563 5.26395609 185.74477319 5.25396729 188.25683594 C5.25842873 188.98951817 5.26289017 189.72220039 5.26748681 190.47708511 C5.2390969 194.14760549 5.02535198 196.87993594 3 200 C2.01 200 1.02 200 0 200 C0 199.34 0 198.68 0 198 C-0.66 198 -1.32 198 -2 198 C-2 197.34 -2 196.68 -2 196 C-2.66 196 -3.32 196 -4 196 C-4 195.34 -4 194.68 -4 194 C-4.8971875 193.5978125 -4.8971875 193.5978125 -5.8125 193.1875 C-7.99847854 192.00082594 -9.41332594 190.90400887 -11 189 C-11 188.34 -11 187.68 -11 187 C-11.66 187 -12.32 187 -13 187 C-13 186.34 -13 185.68 -13 185 C-13.66 185 -14.32 185 -15 185 C-15 184.34 -15 183.68 -15 183 C-15.639375 182.731875 -16.27875 182.46375 -16.9375 182.1875 C-19 181 -19 181 -20 178 C-20.66 178 -21.32 178 -22 178 C-22 177.34 -22 176.68 -22 176 C-22.66 176 -23.32 176 -24 176 C-24 175.34 -24 174.68 -24 174 C-24.8971875 173.5978125 -24.8971875 173.5978125 -25.8125 173.1875 C-27.99847854 172.00082594 -29.41332594 170.90400887 -31 169 C-31 168.34 -31 167.68 -31 167 C-31.66 167 -32.32 167 -33 167 C-33 166.34 -33 165.68 -33 165 C-33.8971875 164.5978125 -33.8971875 164.5978125 -34.8125 164.1875 C-36.99847854 163.00082594 -38.41332594 161.90400887 -40 160 C-40 159.34 -40 158.68 -40 158 C-40.66 158 -41.32 158 -42 158 C-42 157.34 -42 156.68 -42 156 C-42.66 156 -43.32 156 -44 156 C-44 155.34 -44 154.68 -44 154 C-44.639375 153.731875 -45.27875 153.46375 -45.9375 153.1875 C-48 152 -48 152 -49 149 C-49.66 149 -50.32 149 -51 149 C-51 148.34 -51 147.68 -51 147 C-51.66 147 -52.32 147 -53 147 C-53 146.34 -53 145.68 -53 145 C-53.598125 144.731875 -54.19625 144.46375 -54.8125 144.1875 C-56.99847854 143.00082594 -58.41332594 141.90400887 -60 140 C-60 139.34 -60 138.68 -60 138 C-60.66 138 -61.32 138 -62 138 C-62 137.34 -62 136.68 -62 136 C-62.598125 135.731875 -63.19625 135.46375 -63.8125 135.1875 C-65.99847854 134.00082594 -67.41332594 132.90400887 -69 131 C-69 130.34 -69 129.68 -69 129 C-69.66 129 -70.32 129 -71 129 C-71 128.34 -71 127.68 -71 127 C-71.66 127 -72.32 127 -73 127 C-73 126.34 -73 125.68 -73 125 C-73.639375 124.731875 -74.27875 124.46375 -74.9375 124.1875 C-77 123 -77 123 -78 120 C-78.66 120 -79.32 120 -80 120 C-80 119.34 -80 118.68 -80 118 C-80.66 118 -81.32 118 -82 118 C-82 117.34 -82 116.68 -82 116 C-82.598125 115.731875 -83.19625 115.46375 -83.8125 115.1875 C-85.99847854 114.00082594 -87.41332594 112.90400887 -89 111 C-89 110.34 -89 109.68 -89 109 C-89.66 109 -90.32 109 -91 109 C-91 108.34 -91 107.68 -91 107 C-91.66 107 -92.32 107 -93 107 C-93 106.34 -93 105.68 -93 105 C-93.61875 104.731875 -94.2375 104.46375 -94.875 104.1875 C-97 103 -97 103 -99 100 C-97.71937515 98.2925002 -96.38232443 96.62626404 -95 95 C-94.34 95 -93.68 95 -93 95 C-93 94.34 -93 93.68 -93 93 C-92.34 93 -91.68 93 -91 93 C-91 92.34 -91 91.68 -91 91 C-90.34 91 -89.68 91 -89 91 C-88.731875 90.401875 -88.46375 89.80375 -88.1875 89.1875 C-87.00082594 87.00152146 -85.90400887 85.58667406 -84 84 C-83.34 84 -82.68 84 -82 84 C-82 83.34 -82 82.68 -82 82 C-81.34 82 -80.68 82 -80 82 C-80 81.34 -80 80.68 -80 80 C-79.34 80 -78.68 80 -78 80 C-77.731875 79.360625 -77.46375 78.72125 -77.1875 78.0625 C-76 76 -76 76 -73 75 C-73 74.34 -73 73.68 -73 73 C-72.34 73 -71.68 73 -71 73 C-71 72.34 -71 71.68 -71 71 C-70.34 71 -69.68 71 -69 71 C-68.731875 70.401875 -68.46375 69.80375 -68.1875 69.1875 C-67.00082594 67.00152146 -65.90400887 65.58667406 -64 64 C-63.34 64 -62.68 64 -62 64 C-62 63.34 -62 62.68 -62 62 C-61.34 62 -60.68 62 -60 62 C-59.731875 61.401875 -59.46375 60.80375 -59.1875 60.1875 C-58.00082594 58.00152146 -56.90400887 56.58667406 -55 55 C-54.34 55 -53.68 55 -53 55 C-53 54.34 -53 53.68 -53 53 C-52.34 53 -51.68 53 -51 53 C-51 52.34 -51 51.68 -51 51 C-50.34 51 -49.68 51 -49 51 C-48.731875 50.360625 -48.46375 49.72125 -48.1875 49.0625 C-47 47 -47 47 -44 46 C-44 45.34 -44 44.68 -44 44 C-43.34 44 -42.68 44 -42 44 C-42 43.34 -42 42.68 -42 42 C-41.34 42 -40.68 42 -40 42 C-39.731875 41.401875 -39.46375 40.80375 -39.1875 40.1875 C-38.00082594 38.00152146 -36.90400887 36.58667406 -35 35 C-34.34 35 -33.68 35 -33 35 C-33 34.34 -33 33.68 -33 33 C-32.34 33 -31.68 33 -31 33 C-30.731875 32.401875 -30.46375 31.80375 -30.1875 31.1875 C-29.00082594 29.00152146 -27.90400887 27.58667406 -26 26 C-25.34 26 -24.68 26 -24 26 C-24 25.34 -24 24.68 -24 24 C-23.34 24 -22.68 24 -22 24 C-22 23.34 -22 22.68 -22 22 C-21.34 22 -20.68 22 -20 22 C-19.731875 21.360625 -19.46375 20.72125 -19.1875 20.0625 C-18 18 -18 18 -15 17 C-15 16.34 -15 15.68 -15 15 C-14.34 15 -13.68 15 -13 15 C-13 14.34 -13 13.68 -13 13 C-12.34 13 -11.68 13 -11 13 C-10.731875 12.401875 -10.46375 11.80375 -10.1875 11.1875 C-9.00082594 9.00152146 -7.90400887 7.58667406 -6 6 C-5.34 6 -4.68 6 -4 6 C-4 5.34 -4 4.68 -4 4 C-3.34 4 -2.68 4 -2 4 C-2 3.34 -2 2.68 -2 2 C-1.34 2 -0.68 2 0 2 C0 1.34 0 0.68 0 0 Z " fill="#D40442" transform="translate(325,65)"/>
</svg>
