<?xml version="1.0" encoding="UTF-8"?>
<svg version="1.1" xmlns="http://www.w3.org/2000/svg" width="64" height="64">
<path d="M0 0 C0.70125 0.598125 1.4025 1.19625 2.125 1.8125 C2.888125 2.451875 3.65125 3.09125 4.4375 3.75 C7.08573687 8.55605951 6.43340972 13.44103071 6.125 18.8125 C6.74375 18.93625 7.3625 19.06 8 19.1875 C10.125 19.8125 10.125 19.8125 12.125 21.8125 C12.5846469 26.10703207 12.44899779 30.43372818 12.4375 34.75 C12.45361328 35.95591797 12.46972656 37.16183594 12.48632812 38.40429688 C12.48697266 39.55865234 12.48761719 40.71300781 12.48828125 41.90234375 C12.49126221 42.96316162 12.49424316 44.02397949 12.49731445 45.11694336 C12.125 47.8125 12.125 47.8125 11.07885742 49.65478516 C8.03895163 51.45601385 4.93498353 51.26012224 1.5 51.24609375 C0.3850415 51.25395653 0.3850415 51.25395653 -0.75244141 51.26197815 C-2.32257845 51.26839608 -3.89276358 51.26706424 -5.46289062 51.25854492 C-7.86675436 51.25002921 -10.2682458 51.27880361 -12.671875 51.31054688 C-14.19791595 51.31215886 -15.72396112 51.3115814 -17.25 51.30859375 C-17.96881348 51.31982773 -18.68762695 51.33106171 -19.42822266 51.34263611 C-22.56336777 51.29879171 -24.40961555 51.21528922 -26.82446289 49.12524414 C-28.88571933 44.58741419 -28.34427505 39.7116349 -28.3125 34.8125 C-28.33248047 33.719375 -28.35246094 32.62625 -28.37304688 31.5 C-28.37208008 29.9221875 -28.37208008 29.9221875 -28.37109375 28.3125 C-28.37294678 27.3534375 -28.3747998 26.394375 -28.37670898 25.40625 C-27.71621196 21.9915929 -26.68381081 20.83402155 -23.875 18.8125 C-21.12597656 18.35839844 -21.12597656 18.35839844 -18.015625 18.421875 C-16.90058594 18.43476563 -15.78554688 18.44765625 -14.63671875 18.4609375 C-12.89841797 18.51121094 -12.89841797 18.51121094 -11.125 18.5625 C-9.36349609 18.58957031 -9.36349609 18.58957031 -7.56640625 18.6171875 C-4.6684466 18.6643088 -1.77213582 18.73008695 1.125 18.8125 C1.06483797 17.0407281 0.97600672 15.26991321 0.875 13.5 C0.82859375 12.51386719 0.7821875 11.52773438 0.734375 10.51171875 C0.36177905 7.69912747 0.36177905 7.69912747 -1.796875 5.98413086 C-5.14617701 4.0958202 -8.14159358 4.13788036 -11.875 4.8125 C-14.45833333 6.22916667 -14.45833333 6.22916667 -15.875 8.8125 C-16.68265878 12.45971696 -16.68265878 12.45971696 -16.875 15.8125 C-18.8125 16.375 -18.8125 16.375 -20.875 16.8125 C-22.41471828 15.27278172 -22.19279707 13.82764329 -22.3125 11.6875 C-22.28171445 6.86956129 -20.70756671 4.56723783 -17.48046875 1.125 C-12.89498577 -2.62371601 -5.20156074 -2.14847074 0 0 Z M-11.64453125 27.89453125 C-13.51772566 30.81433587 -12.93165169 33.11051627 -12.5625 36.5 C-12.44261719 37.67949219 -12.32273437 38.85898437 -12.19921875 40.07421875 C-12.09222656 40.97785156 -11.98523437 41.88148437 -11.875 42.8125 C-9.235 42.8125 -6.595 42.8125 -3.875 42.8125 C-3.895625 41.843125 -3.91625 40.87375 -3.9375 39.875 C-3.875 36.8125 -3.875 36.8125 -2.875 35.8125 C-2.54161404 32.35437831 -2.54161404 32.35437831 -2.875 28.8125 C-6.07524082 26.67900612 -8.14213217 25.75288766 -11.64453125 27.89453125 Z " fill="#D40442" transform="translate(39.875,7.1875)"/>
</svg>
